<?xml version="1.0" encoding="utf-8"?>
<svg version="1.1" xmlns="http://www.w3.org/2000/svg" xmlns:xlink="http://www.w3.org/1999/xlink" x="0px" y="0px"
	 viewBox="0 0 720 720" style="enable-background:new 0 0 720 720;" xml:space="preserve">
<style type="text/css">
	.st0{fill:#262626;}
</style>
<path class="st0" d="M108,108v504h504V108H108z M568.08,568.08H151.92V230.43v-0.03l276.56,0.03c33.69,0,61.09,27.4,61.09,61.09
	s-27.4,61.09-61.09,61.09h-53.49c51.16,30.68,90.47,79.18,109.03,136.97h-37.34c-5.38-14.1-12.3-27.43-20.42-39.92H300.9v-35.24
	h96.65c-34.51-34.25-80.6-56.83-131.88-61.06v136.21h-35.24v-172.2h198.05c14.25,0,25.85-11.6,25.85-25.86
	c0-14.25-11.6-25.85-25.85-25.85H187.15v267.18h345.69V187.15H151.92v-35.24h416.16V568.08z"/>
</svg>
